<svg width="26" height="24" viewBox="0 0 26 24" fill="none" xmlns="http://www.w3.org/2000/svg">
<path d="M24.2987 18C24.3002 18.7272 24.0942 19.4404 23.7037 20.06C23.4908 20.4164 23.2167 20.7344 22.8932 21C22.4875 21.3514 22.0137 21.62 21.4998 21.7899C20.9858 21.9599 20.4422 22.0278 19.9009 21.9895C19.3596 21.9513 18.8316 21.8078 18.3482 21.5674C17.8648 21.3271 17.4356 20.9947 17.0861 20.59C17.0656 20.56 17.0348 20.54 17.0143 20.51C16.8901 20.3708 16.7801 20.2201 16.686 20.06C16.2955 19.4404 16.0895 18.7272 16.091 18C16.091 16.9392 16.5233 15.9218 17.293 15.1716C18.0626 14.4215 19.1064 14 20.1948 14C21.1756 13.9956 22.1242 14.3406 22.8624 14.97C22.9849 15.0628 23.0983 15.1666 23.201 15.28C23.9049 16.0199 24.2968 16.9911 24.2987 18Z" stroke="white" stroke-linecap="round" stroke-linejoin="round"/>
<path d="M21.7235 17.98H18.6661" stroke="white" stroke-linecap="round" stroke-linejoin="round"/>
<path d="M20.1948 16.52V19.51" stroke="white" stroke-linecap="round" stroke-linejoin="round"/>
<path d="M3.95374 7.44006L13.0131 12.5501L22.0109 7.47006" stroke="white" stroke-linecap="round" stroke-linejoin="round"/>
<path d="M13.0129 21.61V12.54" stroke="white" stroke-linecap="round" stroke-linejoin="round"/>
<path d="M22.8727 9.17002V14.83C22.8744 14.8769 22.8709 14.9238 22.8624 14.97C22.1243 14.3406 21.1756 13.9956 20.1949 14C19.1065 14 18.0626 14.4215 17.293 15.1716C16.5233 15.9217 16.091 16.9392 16.091 18C16.0895 18.7272 16.2955 19.4404 16.686 20.06C16.7801 20.2201 16.8901 20.3708 17.0144 20.51L15.1368 21.52C14.4758 21.8361 13.7493 22.0004 13.0131 22.0004C12.2768 22.0004 11.5503 21.8361 10.8893 21.52L5.41059 18.56C4.75619 18.1591 4.20981 17.6112 3.81713 16.9623C3.42444 16.3134 3.19687 15.5822 3.15344 14.83L3.15344 9.17002C3.19687 8.41783 3.42444 7.68669 3.81713 7.03777C4.20981 6.38885 4.75619 5.84099 5.41059 5.44002L10.8893 2.48002C11.5503 2.16396 12.2768 1.99963 13.0131 1.99963C13.7493 1.99963 14.4758 2.16396 15.1368 2.48002L20.6155 5.44002C21.2699 5.84099 21.8163 6.38885 22.209 7.03777C22.6017 7.68669 22.8292 8.41783 22.8727 9.17002Z" stroke="white" stroke-linecap="round" stroke-linejoin="round"/>
</svg>
