<svg width="17" height="18" viewBox="0 0 17 18" fill="none" xmlns="http://www.w3.org/2000/svg">
<path d="M12.13 14.2206H4.94252C4.77186 14.2113 4.60724 14.1516 4.46781 14.0486C4.32839 13.9456 4.21989 13.8034 4.15496 13.6386L0.989411 4.40661C0.538282 3.0832 1.06587 2.67661 2.15164 3.48979L5.13368 5.71407C5.23616 5.80043 5.35738 5.85928 5.48674 5.88545C5.61609 5.91162 5.74963 5.90433 5.87565 5.8642C6.00168 5.82407 6.11634 5.75234 6.2096 5.65528C6.30286 5.55822 6.37188 5.4388 6.4106 5.30748L7.75634 1.56846C8.18453 0.372607 8.89563 0.372607 9.32382 1.56846L10.6696 5.30748C10.7075 5.43843 10.7758 5.55763 10.8683 5.65458C10.9609 5.75153 11.0749 5.82325 11.2003 5.86342C11.3257 5.90359 11.4587 5.91098 11.5875 5.88494C11.7162 5.85889 11.8369 5.80021 11.9388 5.71407L14.7374 3.63329C15.9302 2.74039 16.5036 3.19481 16.0143 4.63781L12.9252 13.6545C12.8545 13.8153 12.7431 13.9529 12.603 14.0527C12.4629 14.1524 12.2994 14.2104 12.13 14.2206Z" fill="#EDA841"/>
<path d="M5.14575 16.3782C5.00768 16.3782 4.89575 16.4901 4.89575 16.6282C4.89575 16.7663 5.00768 16.8782 5.14575 16.8782H11.6226C11.7606 16.8782 11.8726 16.7663 11.8726 16.6282C11.8726 16.4901 11.7606 16.3782 11.6226 16.3782H5.14575Z" fill="#EDA841" stroke="#EDA841" stroke-width="0.5" stroke-linecap="round" stroke-linejoin="round"/>
<path d="M6.71981 10.0004C6.58174 10.0004 6.46981 10.1123 6.46981 10.2504C6.46981 10.3884 6.58174 10.5004 6.71981 10.5004H10.5429C10.681 10.5004 10.7929 10.3884 10.7929 10.2504C10.7929 10.1123 10.681 10.0004 10.5429 10.0004H6.71981Z" fill="#EDA841" stroke="#0E0E10" stroke-width="0.5" stroke-linecap="round" stroke-linejoin="round"/>
</svg>
