<svg width="24" height="24" viewBox="0 0 24 24" fill="none" xmlns="http://www.w3.org/2000/svg">
<path d="M16.7 18.98H7.29995C7.07676 18.9683 6.86146 18.8935 6.67912 18.7643C6.49678 18.6351 6.35488 18.4567 6.26995 18.25L2.12996 6.66999C1.53996 5.00999 2.22995 4.49999 3.64995 5.51999L7.54995 8.30999C7.68398 8.41831 7.84253 8.49212 8.0117 8.52495C8.18088 8.55778 8.35552 8.54863 8.52034 8.49829C8.68515 8.44796 8.83511 8.35798 8.95708 8.23624C9.07905 8.1145 9.16931 7.96471 9.21995 7.79999L10.98 3.10999C11.54 1.60999 12.47 1.60999 13.03 3.10999L14.79 7.79999C14.8396 7.96423 14.9289 8.11375 15.0499 8.23536C15.1709 8.35697 15.32 8.44693 15.4841 8.49732C15.6481 8.54771 15.822 8.55698 15.9904 8.52431C16.1588 8.49164 16.3167 8.41804 16.45 8.30999L20.11 5.69999C21.67 4.57999 22.42 5.14999 21.78 6.95999L17.74 18.27C17.6475 18.4717 17.5018 18.6443 17.3185 18.7694C17.1353 18.8945 16.9215 18.9673 16.7 18.98Z" stroke="white" stroke-width="1.5" stroke-linecap="round" stroke-linejoin="round"/>
<path d="M6.5 22H17.5" stroke="white" stroke-width="1.5" stroke-linecap="round" stroke-linejoin="round"/>
<path d="M9.5 14H14.5" stroke="white" stroke-width="1.5" stroke-linecap="round" stroke-linejoin="round"/>
</svg>
