<svg width="24" height="24" viewBox="0 0 24 24" fill="none" xmlns="http://www.w3.org/2000/svg">
<path d="M14 5H20" stroke="white" stroke-width="1.5" stroke-linecap="round" stroke-linejoin="round"/>
<path d="M14 8H17" stroke="white" stroke-width="1.5" stroke-linecap="round" stroke-linejoin="round"/>
<path d="M21 11.5C21 13.3789 20.4428 15.2156 19.399 16.7779C18.3551 18.3402 16.8714 19.5578 15.1355 20.2769C13.3996 20.9959 11.4895 21.184 9.64665 20.8175C7.80383 20.4509 6.11109 19.5461 4.78249 18.2175C3.45389 16.8889 2.5491 15.1962 2.18254 13.3534C1.81598 11.5105 2.00412 9.60041 2.72315 7.86451C3.44218 6.12861 4.65982 4.64491 6.22209 3.60104C7.78435 2.55717 9.62108 2 11.5 2" stroke="white" stroke-width="1.5" stroke-linecap="round" stroke-linejoin="round"/>
<path d="M22 22L20 20" stroke="white" stroke-width="1.5" stroke-linecap="round" stroke-linejoin="round"/>
</svg>
