<svg width="24" height="24" viewBox="0 0 24 24" fill="none" xmlns="http://www.w3.org/2000/svg">
<path d="M12 18V15" stroke="white" stroke-width="1.5" stroke-linecap="round" stroke-linejoin="round"/>
<path d="M10.0697 2.81999L3.13973 8.36999C2.73386 8.73053 2.42102 9.1837 2.22778 9.69102C2.03453 10.1983 1.96659 10.7448 2.02973 11.284L3.35973 19.244C3.50002 19.9536 3.8773 20.5944 4.42967 21.0614C4.98204 21.5283 5.6767 21.7937 6.39973 21.814H17.5967C18.3188 21.7903 19.0117 21.5237 19.5634 21.0573C20.1151 20.5909 20.4933 19.952 20.6367 19.244L21.9667 11.284C22.0245 10.7458 21.9541 10.2015 21.7612 9.69569C21.5682 9.18991 21.2583 8.73699 20.8567 8.37399L13.9297 2.82999C13.3735 2.41223 12.697 2.18553 12.0014 2.18373C11.3057 2.18192 10.6281 2.40511 10.0697 2.81999Z" stroke="white" stroke-width="1.5" stroke-linecap="round" stroke-linejoin="round"/>
</svg>
